
<svg width="16" height="16" viewBox="0 0 16 16" fill="none" xmlns="http://www.w3.org/2000/svg">
<path d="M8 2.16666C8 2.16666 4 6.66666 4 9.33332C4 11.5467 5.79333 13.3333 8 13.3333C9.06087 13.3333 10.0783 12.9119 10.8284 12.1617C11.5786 11.4116 12 10.3942 12 9.33332C12 6.66666 8 2.16666 8 2.16666ZM9.64667 6.64666L10.3533 7.35332L6.35333 11.3533L5.64667 10.6467L9.64667 6.64666ZM6.5 6.66666C6.72101 6.66666 6.93298 6.75445 7.08926 6.91073C7.24554 7.06701 7.33333 7.27898 7.33333 7.49999C7.33333 7.721 7.24554 7.93296 7.08926 8.08925C6.93298 8.24553 6.72101 8.33332 6.5 8.33332C6.27899 8.33332 6.06702 8.24553 5.91074 8.08925C5.75446 7.93296 5.66667 7.721 5.66667 7.49999C5.66667 7.27898 5.75446 7.06701 5.91074 6.91073C6.06702 6.75445 6.27899 6.66666 6.5 6.66666ZM9.5 9.66666C9.72101 9.66666 9.93298 9.75445 10.0893 9.91073C10.2455 10.067 10.3333 10.279 10.3333 10.5C10.3333 10.721 10.2455 10.933 10.0893 11.0892C9.93298 11.2455 9.72101 11.3333 9.5 11.3333C9.27899 11.3333 9.06702 11.2455 8.91074 11.0892C8.75446 10.933 8.66667 10.721 8.66667 10.5C8.66667 10.279 8.75446 10.067 8.91074 9.91073C9.06702 9.75445 9.27899 9.66666 9.5 9.66666Z" fill="#333333"/>
</svg>
