<svg width="16" height="16" viewBox="0 0 16 16" fill="none" xmlns="http://www.w3.org/2000/svg">
<path d="M4.05618 12.4695L4.82449 13.2378L5.80532 12.2624L5.03156 11.4886L4.05618 12.4695ZM8.1157 14.6C8.29006 14.6 9.2055 14.6 9.2055 14.6V12.9926H8.1157V14.6ZM8.6606 5.36395C7.7935 5.36395 6.96191 5.7084 6.34878 6.32153C5.73565 6.93467 5.39119 7.76625 5.39119 8.63335C5.39119 9.50045 5.73565 10.332 6.34878 10.9452C6.96191 11.5583 7.7935 11.9028 8.6606 11.9028C9.5277 11.9028 10.3593 11.5583 10.9724 10.9452C11.5855 10.332 11.93 9.50045 11.93 8.63335C11.93 6.82428 10.4642 5.36395 8.6606 5.36395ZM13.0198 9.17825H14.6545V8.08845H13.0198V9.17825ZM11.5159 12.2624L12.4967 13.2378L13.265 12.4695L12.2896 11.4886L11.5159 12.2624ZM13.265 4.79725L12.4967 4.02894L11.5159 5.00431L12.2896 5.77807L13.265 4.79725ZM9.2055 2.66669H8.1157V4.27415H9.2055V2.66669ZM4.30139 8.08845H2.66669V9.17825H4.30139V8.08845ZM5.80532 5.00431L4.82449 4.02894L4.05618 4.79725L5.03156 5.77807L5.80532 5.00431Z" fill="#333333"/>
</svg>
