
<svg width="16" height="16" viewBox="0 0 16 16" fill="none" xmlns="http://www.w3.org/2000/svg">
<path d="M3.20002 6.93332C3.05857 6.93332 2.92292 6.87713 2.8229 6.77711C2.72288 6.67709 2.66669 6.54144 2.66669 6.39999C2.66669 6.25854 2.72288 6.12289 2.8229 6.02287C2.92292 5.92285 3.05857 5.86666 3.20002 5.86666H7.46669C7.74958 5.86666 8.0209 5.75428 8.22093 5.55424C8.42097 5.3542 8.53335 5.08289 8.53335 4.79999C8.53335 4.51709 8.42097 4.24578 8.22093 4.04574C8.0209 3.8457 7.74958 3.73332 7.46669 3.73332C7.17335 3.73332 6.90669 3.85066 6.71469 4.04799C6.50669 4.26666 6.16535 4.26666 5.95735 4.04799C5.74935 3.83999 5.74935 3.49866 5.95735 3.29066C6.34669 2.90666 6.88002 2.66666 7.46669 2.66666C8.03248 2.66666 8.5751 2.89142 8.97518 3.2915C9.37526 3.69157 9.60002 4.23419 9.60002 4.79999C9.60002 5.36578 9.37526 5.90841 8.97518 6.30848C8.5751 6.70856 8.03248 6.93332 7.46669 6.93332H3.20002ZM11.2 7.99999C11.3415 7.99999 11.4771 7.9438 11.5771 7.84378C11.6772 7.74376 11.7334 7.60811 11.7334 7.46666C11.7334 7.32521 11.6772 7.18955 11.5771 7.08953C11.4771 6.98951 11.3415 6.93332 11.2 6.93332C11.0507 6.93332 10.9174 6.99199 10.8214 7.08799C10.6134 7.29599 10.2774 7.29599 10.0694 7.08799C9.86669 6.87999 9.86669 6.54399 10.0694 6.33599C10.3574 6.04799 10.7574 5.86666 11.2 5.86666C11.6244 5.86666 12.0313 6.03523 12.3314 6.33529C12.6314 6.63534 12.8 7.04231 12.8 7.46666C12.8 7.891 12.6314 8.29797 12.3314 8.59803C12.0313 8.89809 11.6244 9.06666 11.2 9.06666H3.73335C3.5919 9.06666 3.45625 9.01047 3.35623 8.91045C3.25621 8.81043 3.20002 8.67477 3.20002 8.53332C3.20002 8.39187 3.25621 8.25622 3.35623 8.1562C3.45625 8.05618 3.5919 7.99999 3.73335 7.99999H11.2ZM10.6667 11.2H3.20002C3.05857 11.2 2.92292 11.1438 2.8229 11.0438C2.72288 10.9438 2.66669 10.8081 2.66669 10.6667C2.66669 10.5252 2.72288 10.3896 2.8229 10.2895C2.92292 10.1895 3.05857 10.1333 3.20002 10.1333H10.6667C11.091 10.1333 11.498 10.3019 11.7981 10.602C12.0981 10.902 12.2667 11.309 12.2667 11.7333C12.2667 12.1577 12.0981 12.5646 11.7981 12.8647C11.498 13.1648 11.091 13.3333 10.6667 13.3333C10.224 13.3333 9.82402 13.152 9.53602 12.864C9.33335 12.656 9.33335 12.32 9.53602 12.112C9.74402 11.904 10.08 11.904 10.288 12.112C10.384 12.208 10.5174 12.2667 10.6667 12.2667C10.8081 12.2667 10.9438 12.2105 11.0438 12.1104C11.1438 12.0104 11.2 11.8748 11.2 11.7333C11.2 11.5919 11.1438 11.4562 11.0438 11.3562C10.9438 11.2562 10.8081 11.2 10.6667 11.2Z" fill="#333333"/>
</svg>
